<svg width="580" height="385" viewBox="0 0 580 385" fill="none" xmlns="http://www.w3.org/2000/svg">
<g filter="url(#filter0_d)">
<path d="M400.714 93.7289C247.214 79.1018 93.9604 125.453 49.9807 180.771C9.57398 231.594 -18.1631 316.299 58.1863 361.092C97.0669 383.903 216.715 354.618 249.895 368.765C283.075 382.913 496.904 360.373 547.847 319.609C598.791 278.845 530.084 239.76 560.248 215.541C590.412 191.322 554.215 108.356 400.714 93.7289Z" fill="#011F48" fill-opacity="0.8"/>
</g>
<path d="M236.332 69.1938C236.332 69.1938 232.904 76.4595 232.319 81.9C232.264 82.4288 232.314 82.9632 232.466 83.4726C232.618 83.9819 232.869 84.4563 233.205 84.8683C233.541 85.2803 233.955 85.6219 234.423 85.8735C234.891 86.1251 235.405 86.2817 235.934 86.3343C238.683 86.5917 242.486 86.1354 244.802 82.4616L249.482 76.7052C250.303 75.4568 250.714 73.9842 250.66 72.4915C250.605 70.9988 250.087 69.56 249.178 68.3748C246.054 63.7767 238.204 64.6542 236.332 69.1938Z" fill="#F4A28C"/>
<path d="M247.716 78.0507L249.611 104.317L235.057 104.329L239.409 85.6908L247.716 78.0507Z" fill="#F4A28C"/>
<path d="M238.087 70.2C240.384 71.1503 242.783 71.8334 245.236 72.2358C244.185 73.0104 243.383 74.0756 242.93 75.3001C242.477 76.5245 242.392 77.8548 242.685 79.1271C242.948 80.366 243.633 81.4752 244.624 82.2648C245.614 83.0545 246.848 83.4756 248.114 83.4561L251.624 73.7217C252.16 72.3429 252.312 70.8446 252.065 69.3861C251.818 67.9276 251.18 66.5633 250.22 65.4381C249.397 64.46 248.514 63.5339 247.576 62.6652C245.236 60.5124 240.427 60.8634 238.625 58.0554C238.442 57.776 238.189 57.5488 237.891 57.3958C237.594 57.2428 237.262 57.1692 236.928 57.1821C236.593 57.1951 236.268 57.2941 235.984 57.4696C235.699 57.6452 235.464 57.8913 235.303 58.1841C233.77 60.9687 232.588 65.8008 235.981 68.8779C236.605 69.4327 237.317 69.8796 238.087 70.2Z" fill="#24285B"/>
<path d="M241.96 78.6006C241.96 78.6006 243.13 75.7224 245.189 76.752C247.248 77.7816 245.681 81.9585 242.568 81.2565L241.96 78.6006Z" fill="#F4A28C"/>
<path d="M234.413 73.8855L231.231 76.05C231.047 76.166 230.896 76.3266 230.791 76.5169C230.686 76.7072 230.631 76.9209 230.631 77.1381C230.631 77.3553 230.686 77.569 230.791 77.7593C230.896 77.9496 231.047 78.1102 231.231 78.2262L233.91 79.8291L234.413 73.8855Z" fill="#F4A28C"/>
<path opacity="0.31" d="M239.292 86.2173C241.048 85.9036 242.686 85.1191 244.03 83.9475C244.03 83.9475 244.966 89.6454 238.04 91.5525L239.292 86.2173Z" fill="#CE8172"/>
<path d="M347.002 104.551C368.875 104.551 386.606 86.8197 386.606 64.9467C386.606 43.0737 368.875 25.3422 347.002 25.3422C325.129 25.3422 307.397 43.0737 307.397 64.9467C307.397 86.8197 325.129 104.551 347.002 104.551Z" fill="#24285B"/>
<path d="M317.32 74.5407L290.047 94.2084L327.92 87.4107L317.32 74.5407Z" fill="#24285B"/>
<path d="M155.134 108.272C155.134 108.272 122.012 172.376 148.114 185.246C174.217 198.116 227.838 135.135 227.838 135.135L212.183 103.475C212.183 103.475 176.732 124.02 160.551 158.336L163.277 105.534L155.134 108.272Z" fill="#F2C379"/>
<path opacity="0.2" d="M155.134 108.272C155.134 108.272 122.012 172.376 148.114 185.246C174.217 198.116 227.838 135.135 227.838 135.135L212.183 103.475C212.183 103.475 176.732 124.02 160.551 158.336L163.277 105.534L155.134 108.272Z" fill="white"/>
<path opacity="0.45" d="M309.316 332.257C403.884 332.257 480.546 319.81 480.546 304.457C480.546 289.104 403.884 276.658 309.316 276.658C214.749 276.658 138.087 289.104 138.087 304.457C138.087 319.81 214.749 332.257 309.316 332.257Z" fill="#E6E6E6"/>
<path d="M422.07 151.351H277.75C271.45 151.351 266.343 156.459 266.343 162.759V261.963C266.343 268.263 271.45 273.371 277.75 273.371H422.07C428.37 273.371 433.477 268.263 433.477 261.963V162.759C433.477 156.459 428.37 151.351 422.07 151.351Z" fill="#C9C9C9"/>
<path d="M147.061 102.609C167.797 102.609 184.606 85.7994 184.606 65.0637C184.606 44.328 167.797 27.5184 147.061 27.5184C126.325 27.5184 109.516 44.328 109.516 65.0637C109.516 85.7994 126.325 102.609 147.061 102.609Z" fill="#D36820"/>
<path d="M147.061 102.609C167.797 102.609 184.606 85.7994 184.606 65.0637C184.606 44.328 167.797 27.5184 147.061 27.5184C126.325 27.5184 109.516 44.328 109.516 65.0637C109.516 85.7994 126.325 102.609 147.061 102.609Z" fill="#FFD200"/>
<path opacity="0.08" d="M147.061 102.609C167.797 102.609 184.606 85.7994 184.606 65.0637C184.606 44.328 167.797 27.5184 147.061 27.5184C126.325 27.5184 109.516 44.328 109.516 65.0637C109.516 85.7994 126.325 102.609 147.061 102.609Z" fill="black"/>
<path d="M157.744 98.4906C178.479 98.4906 195.289 81.681 195.289 60.9453C195.289 40.2096 178.479 23.4 157.744 23.4C137.008 23.4 120.198 40.2096 120.198 60.9453C120.198 81.681 137.008 98.4906 157.744 98.4906Z" fill="#FFD200"/>
<path opacity="0.33" d="M157.743 86.5917C171.907 86.5917 183.389 75.1094 183.389 60.9453C183.389 46.7812 171.907 35.2989 157.743 35.2989C143.579 35.2989 132.097 46.7812 132.097 60.9453C132.097 75.1094 143.579 86.5917 157.743 86.5917Z" fill="white"/>
<path d="M417.717 165.239H282.103C273.399 165.239 266.343 172.295 266.343 180.999V289.177C266.343 297.881 273.399 304.937 282.103 304.937H417.717C426.421 304.937 433.477 297.881 433.477 289.177V180.999C433.477 172.295 426.421 165.239 417.717 165.239Z" fill="#E6E6E6"/>
<path opacity="0.08" d="M331.114 151.351H359.194C359.194 151.351 374.65 223.318 324.971 240.727C275.293 258.137 306.251 304.937 306.251 304.937H279.224L270.508 293.962V261.004L263.804 228.15L279.189 166.737L295.686 152.989L331.114 151.351Z" fill="black"/>
<path d="M430.026 215.315H386.42C377.315 215.315 369.935 222.696 369.935 231.8V239.218C369.935 248.323 377.315 255.704 386.42 255.704H430.026C439.13 255.704 446.511 248.323 446.511 239.218V231.8C446.511 222.696 439.13 215.315 430.026 215.315Z" fill="#A5A5A5"/>
<path d="M388.841 244.214C393.739 244.214 397.71 240.243 397.71 235.345C397.71 230.447 393.739 226.477 388.841 226.477C383.943 226.477 379.973 230.447 379.973 235.345C379.973 240.243 383.943 244.214 388.841 244.214Z" fill="#E6E6E6"/>
<path d="M205.456 108.962C207.188 106.769 209.358 104.962 211.828 103.654C214.297 102.347 217.012 101.569 219.8 101.369C231.862 100.515 263.979 104.598 282.851 116.228C309.293 132.514 313.739 153.364 270.496 221.469L224.866 218.79C224.866 218.79 174.088 148.52 205.456 108.962Z" fill="#F2C379"/>
<path opacity="0.08" d="M260.586 125.611C260.586 125.611 250.828 148.59 263.803 168.901C276.779 189.212 241.059 219.773 241.059 219.773L268.94 221.469L274.298 215.339C274.298 215.339 294.75 181.724 298.868 167.369C302.987 153.013 278.651 145.291 278.651 145.291L260.586 125.611Z" fill="black"/>
<path d="M261.405 140.891C253.449 126.769 267.676 110.471 282.828 116.228C307.246 125.506 343.574 146.086 337.689 185.258C328.949 243.489 284.793 225.529 284.793 225.529L284.325 213.911C284.325 213.911 312.487 214.555 312.768 185.831C312.979 164.642 273.397 162.185 261.405 140.891Z" fill="#F2C379"/>
<path opacity="0.2" d="M261.405 140.891C253.449 126.769 267.676 110.471 282.828 116.228C307.246 125.506 343.574 146.086 337.689 185.258C328.949 243.489 284.793 225.529 284.793 225.529L284.325 213.911C284.325 213.911 312.487 214.555 312.768 185.831C312.979 164.642 273.397 162.185 261.405 140.891Z" fill="white"/>
<path d="M224.808 218.79L232.541 298.35H244.078L246.418 251.456C246.608 247.639 247.631 243.91 249.416 240.531C251.2 237.151 253.703 234.203 256.749 231.894L270.52 221.469L224.808 218.79Z" fill="#24285B"/>
<path d="M270.472 221.469L280.476 298.35L268.203 300.538L250.653 236.48L238.04 228.138L270.472 221.469Z" fill="#24285B"/>
<path d="M163.277 105.534C163.277 105.534 161.007 97.8939 148.067 98.28C135.127 98.6661 141.831 115.514 163.277 105.534Z" fill="#F4A28C"/>
<path d="M284.325 213.911C284.325 213.911 268.893 213.303 268.402 221.902C267.91 230.502 272.871 233.368 278.721 232.959C284.571 232.549 276.779 227.811 284.325 223.447V213.911Z" fill="#F4A28C"/>
<path d="M236.063 298.35C236.063 298.35 234.822 303.533 230.365 304.411C225.907 305.288 225.217 309.816 229.394 310.518C233.571 311.22 243.434 304.855 243.434 304.855L242.416 298.397L236.063 298.35Z" fill="#F2C379"/>
<path d="M276.685 298.994C276.685 298.994 278.932 303.826 283.471 303.802C288.011 303.779 289.602 308.084 285.648 309.594C281.693 311.103 270.765 306.832 270.765 306.832L270.473 300.304L276.685 298.994Z" fill="#F2C379"/>
<path d="M348.5 41.6403C349.67 41.6403 350.033 42.0498 350.033 43.2198V45.7236C354.713 46.3905 357.427 48.7305 359.393 52.8138C360.001 53.9838 359.744 54.6975 358.363 55.3059L355.871 56.4759C354.701 57.0375 354.139 56.7801 353.531 55.5633C353.009 54.2936 352.093 53.2256 350.917 52.5176C349.741 51.8095 348.368 51.499 347.002 51.6321C342.673 51.6321 340.684 52.9074 340.684 55.809C340.684 57.7044 342.416 58.8744 344.194 59.2254C345.405 59.495 346.632 59.6826 347.868 59.787C350.183 59.9031 352.468 60.3523 354.654 61.1208C355.75 61.4676 356.771 62.0195 357.661 62.7471C358.565 63.6964 359.269 64.8169 359.733 66.0426C360.198 67.2682 360.412 68.5744 360.364 69.8841C360.364 75.4416 356.643 79.2441 350.068 80.1918V82.836C350.068 84.006 349.705 84.4155 348.535 84.4155H345.727C344.557 84.4155 344.148 84.006 344.148 82.836V80.1918C339.046 79.5249 335.63 76.9275 333.945 72.3411C333.839 72.113 333.786 71.8641 333.79 71.6128C333.794 71.3615 333.854 71.1142 333.967 70.8894C334.079 70.6646 334.241 70.468 334.44 70.3142C334.638 70.1604 334.869 70.0534 335.115 70.0011L337.607 69.0885C338.883 68.6322 339.444 68.9364 340.006 70.2585C341.129 73.1133 343.422 74.5407 346.885 74.5407C351.565 74.5407 353.905 73.0548 353.905 70.0479C353.946 69.3509 353.751 68.6605 353.353 68.0875C352.954 67.5146 352.374 67.0924 351.706 66.8889C350.082 66.3197 348.382 65.9925 346.663 65.9178C344.302 65.7605 341.98 65.2314 339.783 64.35C338.698 63.9845 337.687 63.4256 336.8 62.7003C335.89 61.7942 335.177 60.7107 334.704 59.5171C334.231 58.3235 334.008 57.0454 334.05 55.7622C334.05 50.2632 337.56 46.5894 344.042 45.7236V43.2198C344.042 42.0498 344.452 41.6403 345.622 41.6403H348.5Z" fill="#FFD200"/>
<defs>
<filter id="filter0_d" x="0" y="83" width="580" height="302" filterUnits="userSpaceOnUse" color-interpolation-filters="sRGB">
<feFlood flood-opacity="0" result="BackgroundImageFix"/>
<feColorMatrix in="SourceAlpha" type="matrix" values="0 0 0 0 0 0 0 0 0 0 0 0 0 0 0 0 0 0 127 0"/>
<feOffset dy="2"/>
<feGaussianBlur stdDeviation="5"/>
<feColorMatrix type="matrix" values="0 0 0 0 0 0 0 0 0 0 0 0 0 0 0 0 0 0 0.18 0"/>
<feBlend mode="normal" in2="BackgroundImageFix" result="effect1_dropShadow"/>
<feBlend mode="normal" in="SourceGraphic" in2="effect1_dropShadow" result="shape"/>
</filter>
</defs>
</svg>
