<svg width="147" height="63" viewBox="0 0 147 63" fill="none" xmlns="http://www.w3.org/2000/svg">
<path fill-rule="evenodd" clip-rule="evenodd" d="M37.2322 1.29146C37.2322 1.57492 37.6418 2.83493 37.7362 3.05548C39.8784 2.86639 41.8944 2.07893 45.7373 2.07893C50.9664 2.07893 55.5025 2.61439 59.6603 4.4731C60.5425 4.85094 61.2667 5.19765 62.1489 5.6384C62.5899 5.8904 62.8102 6.04803 63.2512 6.30003C64.9523 7.3395 64.9523 7.43387 66.5273 8.63096C69.5827 10.9934 72.6382 15.6241 74.1817 19.3726C76.0089 23.8454 77.0798 30.0196 76.3868 34.9335C75.8828 38.3671 75.6308 40.194 74.2764 43.5644C72.2604 48.573 69.0473 52.5107 64.7947 55.6605C56.7939 61.5509 45.3909 62.3069 36.1927 58.7789C31.0269 56.7947 30.2394 55.4085 27.688 54.0541C27.1207 54.4005 26.7429 54.936 26.3965 55.4714C26.8372 56.1331 29.6722 57.8971 30.5229 58.3696C35.7834 61.2045 41.1069 62.7795 46.5562 63H48.9504C52.9824 62.8424 57.0459 61.9291 61.1094 60.1651C63.2512 59.2514 65.3934 57.8341 67.1574 56.448C71.4414 53.109 74.1817 49.077 76.3238 44.0055C77.1742 41.9895 78.4657 36.8866 78.5289 34.5239C78.6233 31.0591 78.7809 31.0591 78.3399 27.1844C77.6153 20.475 74.3078 13.3875 69.5827 8.63096C69.2678 8.31604 68.9214 8.06404 68.5747 7.71767C68.1654 7.27658 68.0393 7.18187 67.5667 6.80404C65.0153 4.85094 63.1569 3.68564 60.1014 2.42564C56.2267 0.81892 51.691 0 46.3672 0C46.0208 0 37.2322 0.472542 37.2322 1.29146Z" fill="#CEB16C"/>
<path fill-rule="evenodd" clip-rule="evenodd" d="M81.3953 35.0278C81.3953 38.8393 80.7651 40.9182 83.1593 40.9182C83.5686 40.9182 83.9153 40.54 84.0726 40.2566C84.7027 39.0913 84.4507 30.397 84.4507 28.7907C84.7342 29.2632 85.9313 34.7758 86.0886 35.4371C86.4038 36.5712 86.6241 37.6107 86.9078 38.776C87.2228 40.036 87.4118 40.9811 88.9239 40.9811C90.9399 41.044 91.0657 38.3982 91.8846 35.5947L93.3966 29.7672C93.3966 29.7672 93.4913 29.4208 93.4913 29.389L93.7116 28.9483C93.7116 32.6021 93.5543 35.6891 93.5543 39.3433C93.5543 40.4771 94.0583 41.0758 95.1292 41.0758C96.7356 41.0758 96.5783 39.3118 96.5783 37.7365C96.5783 36.0672 96.5783 34.4291 96.5783 32.7912C96.5783 25.3888 97.9327 25.105 93.0503 25.105C91.8846 25.105 91.7273 25.9872 91.3806 26.9637C91.0657 27.9403 90.8766 28.8221 90.5932 29.8301L88.8921 35.5003C88.8292 34.5867 87.7582 30.7752 87.4118 29.4523C87.1913 28.4757 86.9393 27.4363 86.7188 26.4912C86.2777 24.7586 85.3326 24.9477 83.4742 24.9477C81.0171 24.9477 81.5526 26.7747 81.5843 29.1056C81.5843 30.2398 81.3638 30.7752 81.3953 31.9723C81.3953 32.9803 81.3953 33.9883 81.3953 35.0278Z" fill="#CEB16C"/>
<path fill-rule="evenodd" clip-rule="evenodd" d="M29.2316 7.52887C28.2865 7.52887 28.0659 7.05633 27.0265 7.02487C27.1526 6.42616 27.1212 6.20562 26.239 5.60724C25.3572 5.79632 25.7979 6.17415 24.9475 6.3947C24.9161 5.76486 25.0105 5.92216 24.6641 5.54432C23.9081 4.59923 23.4041 5.4814 23.0259 5.76486C22.2384 5.57578 21.3566 5.13469 20.4744 5.13469C20.0651 5.13469 19.183 5.9854 19.183 6.3947C19.183 7.37124 24.2544 8.82034 25.7665 11.0251L22.5851 14.7737C21.955 15.4982 21.5139 15.1204 19.8446 15.0257C19.7499 15.0257 17.4189 14.4273 17.4189 15.8131C17.4189 16.3171 18.0491 16.4748 18.4899 16.6638C19.0257 16.9473 19.3091 17.1046 19.9075 17.3566C21.6715 18.1126 19.1515 19.0262 21.9235 19.0262C22.3961 19.9399 22.8371 21.6724 23.6875 22.2393C25.3572 21.7668 24.3492 19.9713 24.3174 17.2622C26.1132 16.0651 26.9006 15.1204 28.4441 13.7342C29.8929 14.7107 30.9641 17.0417 31.8774 18.6484C32.3185 19.4359 32.4761 20.2862 33.2321 20.2862C33.7361 20.2862 34.555 19.4044 34.4921 18.7742C34.4607 18.5537 33.8305 16.6324 33.7361 16.4748C34.0511 16.2542 34.618 15.9393 34.4921 15.4038C34.366 14.9313 33.7676 14.6164 33.2321 14.5531C33.4209 13.8604 34.4921 13.5769 33.4527 12.7262C32.6967 12.0964 32.6649 12.9467 32.2556 11.4033C32.1927 11.0569 32.0665 10.7731 31.9721 10.3953C32.3185 9.8598 32.791 9.41872 33.295 9.00909C33.6729 8.69417 33.6729 8.78888 33.9881 8.41071C35.626 6.61524 36.9804 5.35524 36.4449 3.05576C33.043 2.20538 29.7041 7.52887 29.2316 7.52887Z" fill="#CEB16C"/>
<path fill-rule="evenodd" clip-rule="evenodd" d="M39.5013 40.446C39.9739 40.446 40.6041 40.0993 40.8561 39.7529C41.5174 38.7449 41.2339 34.8705 41.2339 33.2638H47.975V38.682C47.975 40.0678 48.6363 40.446 49.739 40.446C51.1249 40.446 51.1563 39.2804 51.1563 37.8945L51.314 25.7352C51.314 23.8454 48.1323 23.751 48.1323 25.8928V30.7123L41.2339 30.5547C41.2339 27.531 42.1475 24.1603 39.659 24.1603C38.1155 24.1603 38.0523 25.7352 38.0523 27.3419C38.084 28.9798 38.0523 30.6494 38.0523 32.2873C38.0523 35.1225 37.0128 40.446 39.5013 40.446Z" fill="#CEB16C"/>
<path fill-rule="evenodd" clip-rule="evenodd" d="M99.7939 30.5547V39.5009C99.7939 41.0444 101.432 40.9497 102.976 40.9182C104.519 40.9182 106.094 40.9497 107.637 40.9182C108.96 40.9182 111.008 41.3279 111.607 40.5719C112.173 39.8473 112.142 38.3982 109.716 38.3982H102.976V33.894C104.109 33.894 104.551 34.0513 105.716 34.0513C107.952 34.0513 111.575 34.5867 111.071 32.5393C110.851 31.6574 110.095 31.4998 109.055 31.4998C107.071 31.4369 104.992 31.4998 102.976 31.4998C103.259 30.2712 103.133 29.1374 103.133 27.6569L110.189 27.8141C111.134 27.8141 111.795 27.4992 111.795 26.5545C111.795 24.9792 109.968 25.2627 108.425 25.2627C106.819 25.2627 105.212 25.2627 103.637 25.2627C100.235 25.2945 99.7939 24.3179 99.7939 30.5547Z" fill="#CEB16C"/>
<path fill-rule="evenodd" clip-rule="evenodd" d="M23.1838 28.3189C23.1838 34.2411 32.13 31.9416 32.13 35.6584C32.13 37.8635 27.9089 38.9344 26.3026 36.572C26.0188 36.1624 25.3575 34.052 24.4753 34.052C21.1993 34.052 22.806 40.2891 29.0746 40.2891C32.6023 40.2891 35.3114 38.588 35.3114 35.0285C35.3114 29.516 26.2393 31.0909 26.2393 28.1301C26.2393 26.3976 28.3186 26.3976 29.3895 26.3976C32.0353 26.3976 31.4999 29.4216 33.2324 29.4216C35.7839 29.4216 35.5948 24.0034 28.602 24.0034C25.8929 24.0034 23.1838 25.6101 23.1838 28.3189Z" fill="#CEB16C"/>
<path fill-rule="evenodd" clip-rule="evenodd" d="M66.8442 31.9724C66.0567 31.9724 65.7415 31.8151 64.7652 31.8151V27.1844C66.6865 27.1844 70.2146 26.838 70.2146 29.106C70.2146 30.9015 69.8682 31.9724 66.8442 31.9724ZM61.3945 37.8946V38.8393C61.3945 40.8553 63.5996 41.265 64.3871 39.942C64.702 39.3751 64.7652 35.4375 64.7652 34.3666C68.7026 34.3666 73.5849 34.9335 73.5849 29.2636C73.5849 24.8534 69.5215 24.7591 66.8442 24.7591C65.6156 24.7905 64.2295 24.5071 63.2215 24.6961C60.9852 25.074 61.5836 26.9009 61.5836 30.5551C61.5836 31.7518 61.3945 32.6655 61.3945 34.0516C61.3945 35.3431 61.3945 36.6031 61.3945 37.8946Z" fill="#CEB16C"/>
<path fill-rule="evenodd" clip-rule="evenodd" d="M54.6828 34.8391C54.6828 37.6111 54.1159 40.6351 56.2892 40.6351C58.3682 40.6351 57.8959 38.0207 57.8959 36.4458C57.8959 35.3431 58.0532 34.9024 58.0532 33.7367V25.8932C58.0532 23.9402 55.1239 23.7511 54.8405 25.7356C54.7458 26.4916 54.8405 27.9722 54.8405 28.7911C54.8405 29.9253 54.6828 30.4607 54.6828 31.6578C54.6828 32.7287 54.6828 33.7996 54.6828 34.8391Z" fill="#CEB16C"/>
<path fill-rule="evenodd" clip-rule="evenodd" d="M0 44.4464H36.6031V43.1864H0V44.4464Z" fill="#CEB16C"/>
<path fill-rule="evenodd" clip-rule="evenodd" d="M0.15625 50.6835H36.7592V49.4235H0.15625V50.6835Z" fill="#CEB16C"/>
<path fill-rule="evenodd" clip-rule="evenodd" d="M4.63086 47.502H41.2338V46.3682H4.63086V47.502Z" fill="#CEB16C"/>
<path d="M93.7328 42.3252C94.3116 42.3252 94.7838 42.5156 95.1494 42.8964C95.5302 43.2772 95.7207 43.7723 95.7207 44.3816V56.6058C95.7207 57.2303 95.5379 57.733 95.1723 58.1138C94.8067 58.4946 94.3345 58.6851 93.7556 58.6851C93.0702 58.6851 92.5523 58.4566 92.2019 57.9996L85.2558 49.3398V56.6058C85.2558 57.2303 85.0806 57.733 84.7303 58.1138C84.3799 58.4946 83.9077 58.6851 83.3136 58.6851C82.7348 58.6851 82.2626 58.4946 81.897 58.1138C81.5314 57.733 81.3486 57.2303 81.3486 56.6058V44.3816C81.3486 43.7723 81.5314 43.2772 81.897 42.8964C82.2626 42.5156 82.7348 42.3252 83.3136 42.3252C83.9686 42.3252 84.4789 42.5537 84.8445 43.0106L91.7906 51.6476V44.3816C91.7906 43.757 91.9658 43.262 92.3161 42.8964C92.6817 42.5156 93.1539 42.3252 93.7328 42.3252ZM106.296 58.7536C104.651 58.7536 103.219 58.4185 102 57.7483C100.797 57.0628 99.8676 56.1031 99.2126 54.8693C98.5576 53.6202 98.2301 52.1579 98.2301 50.4823C98.2301 48.8067 98.5576 47.3519 99.2126 46.1181C99.8676 44.869 100.797 43.9094 102 43.2391C103.219 42.5689 104.651 42.2338 106.296 42.2338C107.941 42.2338 109.365 42.5689 110.569 43.2391C111.787 43.9094 112.716 44.869 113.356 46.1181C114.011 47.3519 114.339 48.8067 114.339 50.4823C114.339 52.1579 114.011 53.6202 113.356 54.8693C112.701 56.1031 111.764 57.0628 110.546 57.7483C109.342 58.4185 107.926 58.7536 106.296 58.7536ZM106.296 55.5319C107.514 55.5319 108.466 55.1054 109.152 54.2524C109.837 53.3841 110.18 52.1274 110.18 50.4823C110.18 48.8371 109.83 47.588 109.129 46.735C108.444 45.882 107.499 45.4555 106.296 45.4555C105.077 45.4555 104.125 45.882 103.44 46.735C102.754 47.5728 102.411 48.8219 102.411 50.4823C102.411 52.1426 102.754 53.3993 103.44 54.2524C104.125 55.1054 105.077 55.5319 106.296 55.5319ZM136.055 43.6047C136.207 43.1782 136.451 42.8507 136.786 42.6222C137.136 42.3937 137.517 42.2795 137.928 42.2795C138.431 42.2795 138.865 42.4394 139.231 42.7593C139.612 43.0792 139.802 43.5133 139.802 44.0617C139.802 44.3054 139.741 44.6101 139.619 44.9756L135.027 57.4055C134.874 57.832 134.592 58.1671 134.181 58.4109C133.785 58.6394 133.343 58.7536 132.856 58.7536C132.368 58.7536 131.927 58.6394 131.531 58.4109C131.135 58.1671 130.86 57.832 130.708 57.4055L127.738 48.9285L124.63 57.4055C124.463 57.832 124.181 58.1671 123.785 58.4109C123.389 58.6394 122.955 58.7536 122.482 58.7536C121.995 58.7536 121.553 58.6394 121.157 58.4109C120.761 58.1671 120.487 57.832 120.335 57.4055L115.719 44.9756C115.613 44.671 115.559 44.3816 115.559 44.1074C115.559 43.5438 115.757 43.102 116.153 42.7821C116.565 42.447 117.037 42.2795 117.57 42.2795C117.996 42.2795 118.385 42.3937 118.735 42.6222C119.101 42.8355 119.36 43.163 119.512 43.6047L122.642 52.6072L125.955 43.6047C126.108 43.1782 126.352 42.8507 126.687 42.6222C127.037 42.3937 127.418 42.2795 127.829 42.2795C128.24 42.2795 128.614 42.3937 128.949 42.6222C129.284 42.8507 129.528 43.1858 129.68 43.6275L132.787 52.8129L136.055 43.6047ZM143.865 53.2241C143.545 53.2241 143.271 53.1175 143.042 52.9043C142.829 52.691 142.692 52.3863 142.631 51.9903L141.443 44.8843C141.428 44.7929 141.42 44.671 141.42 44.5187C141.42 43.8332 141.648 43.3001 142.105 42.9192C142.578 42.5232 143.164 42.3252 143.865 42.3252C144.581 42.3252 145.167 42.5232 145.624 42.9192C146.081 43.3153 146.31 43.856 146.31 44.5415C146.31 44.6938 146.302 44.8157 146.287 44.9071L145.076 51.9903C145.03 52.3863 144.893 52.691 144.665 52.9043C144.451 53.1175 144.185 53.2241 143.865 53.2241ZM143.865 58.6851C143.225 58.6851 142.692 58.4718 142.265 58.0453C141.854 57.6188 141.648 57.0932 141.648 56.4687C141.648 55.8442 141.854 55.3186 142.265 54.8921C142.692 54.4656 143.225 54.2524 143.865 54.2524C144.489 54.2524 145.007 54.4656 145.419 54.8921C145.845 55.3186 146.058 55.8442 146.058 56.4687C146.058 57.0932 145.845 57.6188 145.419 58.0453C145.007 58.4718 144.489 58.6851 143.865 58.6851Z" fill="#CEB16C"/>
</svg>
