<svg width="580" height="385" viewBox="0 0 580 385" fill="none" xmlns="http://www.w3.org/2000/svg">
<g filter="url(#filter0_d)">
<path d="M400.714 93.7289C247.214 79.1018 93.9604 125.453 49.9807 180.771C9.57398 231.594 -18.1631 316.299 58.1863 361.092C97.0669 383.903 216.715 354.618 249.895 368.765C283.075 382.913 496.904 360.373 547.847 319.609C598.791 278.845 530.084 239.76 560.248 215.541C590.412 191.322 554.215 108.356 400.714 93.7289Z" fill="#011F48" fill-opacity="0.8"/>
</g>
<path d="M344.787 152.65H435.406V38.056L344.787 38.056V152.65Z" fill="#E6E6E6"/>
<path opacity="0.2" d="M348.644 62.0659C348.644 62.0659 365.21 60.492 365.589 74.7157C365.589 74.7157 364.406 100.465 375.21 112.452C386.013 124.439 413.076 97.5777 420.614 152.686H393.894L357.211 124.132L346.703 84.6439L348.644 62.0659Z" fill="#A5A5A5"/>
<path d="M405.822 102.678C415.358 102.678 423.087 94.9481 423.087 85.413C423.087 75.8779 415.358 68.1482 405.822 68.1482C396.287 68.1482 388.558 75.8779 388.558 85.413C388.558 94.9481 396.287 102.678 405.822 102.678Z" fill="white"/>
<path d="M398.226 83.7208L402.935 90.9983L411.976 79.8158" stroke="#A5A5A5" stroke-width="4" stroke-linecap="round" stroke-linejoin="round"/>
<path opacity="0.4" d="M386.878 57.3443L421.372 57.3443V48.8953H386.878V57.3443Z" fill="#A5A5A5"/>
<path d="M241.825 38.0679H151.205V152.662H241.825V38.0679Z" fill="#E6E6E6"/>
<path opacity="0.2" d="M237.955 62.0895C237.955 62.0895 221.388 60.5157 221.021 74.7275C221.021 74.7275 222.204 100.489 211.401 112.464C200.597 124.439 173.534 97.6013 165.996 152.697H192.716L229.399 124.155L239.966 84.6557L237.955 62.0895Z" fill="#A5A5A5"/>
<path d="M259.764 110.843C259.764 110.843 273.881 127.575 279.797 137.633C285.714 147.692 306.351 150.2 319.865 124.842C327.888 109.778 329.817 101.767 336.574 106.595C343.331 111.423 327.888 131.847 327.888 131.847C327.888 131.847 321.048 178.884 259.764 164.483C180.137 145.775 259.764 110.843 259.764 110.843Z" fill="#D88B7C"/>
<path opacity="0.45" d="M288.471 332.387C373.621 332.387 442.648 322.463 442.648 310.223C442.648 297.982 373.621 288.059 288.471 288.059C203.322 288.059 134.295 297.982 134.295 310.223C134.295 322.463 203.322 332.387 288.471 332.387Z" fill="#E6E6E6"/>
<path d="M381.564 114.783C388.794 142 398.45 212.598 299.997 204.208V194.445C299.997 194.445 344.964 187.641 350.88 168.116C355.898 151.55 341.011 107.908 362.714 102.926C371.056 101.033 379.351 106.5 381.564 114.783Z" fill="#F2C379"/>
<path opacity="0.08" d="M381.564 114.783C388.794 142 398.45 212.598 299.997 204.208V194.445C299.997 194.445 344.964 187.641 350.88 168.116C355.898 151.55 341.011 107.908 362.714 102.926C371.056 101.033 379.351 106.5 381.564 114.783Z" fill="black"/>
<path d="M254.167 68.9765C254.167 68.9765 254.96 78.0763 253.433 84.1232C253.283 84.7077 253.019 85.2569 252.656 85.7393C252.294 86.2217 251.839 86.6278 251.319 86.9344C250.799 87.2411 250.224 87.4422 249.627 87.5263C249.029 87.6105 248.421 87.5759 247.836 87.4247C244.795 86.6082 240.926 84.632 239.92 79.804L237.186 71.8283C236.807 70.1747 236.95 68.4439 237.596 66.8753C238.243 65.3066 239.361 63.9775 240.795 63.0717C245.884 59.3678 253.954 63.4148 254.167 68.9765Z" fill="#F4A28C"/>
<path d="M238.535 73.9347L228.134 96.8677L241.671 106.914L244.369 85.342L238.535 73.9347Z" fill="#F4A28C"/>
<path d="M251.894 69.3552C249.074 69.4648 246.251 69.2464 243.481 68.7043C244.296 69.9451 244.73 71.3971 244.73 72.8815C244.73 74.3659 244.296 75.8179 243.481 77.0587C242.713 78.2761 241.546 79.1887 240.179 79.6399C238.813 80.0912 237.332 80.0529 235.99 79.5318L236.144 67.805C236.109 66.1251 236.531 64.4672 237.364 63.0083C238.198 61.5494 239.412 60.3443 240.877 59.5217C242.141 58.8003 243.449 58.16 244.794 57.6047C248.167 56.2557 253.078 58.504 256.142 56.2202C256.448 55.993 256.807 55.849 257.184 55.802C257.562 55.7551 257.945 55.8069 258.297 55.9523C258.649 56.0977 258.957 56.3319 259.191 56.6318C259.425 56.9318 259.578 57.2874 259.633 57.6638C260.154 61.2138 259.527 66.8465 254.699 68.799C253.801 69.1393 252.854 69.3273 251.894 69.3552Z" fill="#24285B"/>
<path d="M244.451 76.7865C244.451 76.7865 244.451 73.2365 241.753 73.5442C239.055 73.8518 239.174 78.8928 242.759 79.3662L244.451 76.7865Z" fill="#F4A28C"/>
<path d="M254.356 74.7275L256.9 78.2775C257.047 78.4764 257.14 78.7093 257.172 78.9543C257.204 79.1994 257.172 79.4485 257.081 79.6781C256.99 79.9078 256.842 80.1104 256.651 80.267C256.46 80.4236 256.232 80.529 255.989 80.5732L252.498 81.2358L254.356 74.7275Z" fill="#F4A28C"/>
<path opacity="0.31" d="M244.297 85.9573C242.546 84.9264 241.11 83.4371 240.144 81.65C240.144 81.65 236.901 87.3418 243.528 92.1106L244.297 85.9573Z" fill="#CE8172"/>
<path d="M330.918 71.8402C330.918 71.8402 330.125 80.94 331.651 86.9868C331.8 87.5722 332.064 88.1223 332.426 88.6055C332.788 89.0888 333.243 89.4955 333.763 89.8024C334.283 90.1092 334.859 90.3102 335.457 90.3936C336.055 90.477 336.664 90.4412 337.249 90.2883C340.29 89.4718 344.147 87.4957 345.165 82.6677L347.899 74.7038C348.275 73.0502 348.13 71.3207 347.483 69.7528C346.837 68.1849 345.721 66.8555 344.289 65.9472C339.142 62.2433 331.083 66.2667 330.918 71.8402Z" fill="#F4A28C"/>
<path d="M346.538 76.7983L356.94 99.7313L343.402 109.778L340.692 88.2057L346.538 76.7983Z" fill="#F4A28C"/>
<path d="M340.609 79.662C340.609 79.662 340.68 76.112 343.319 76.4078C345.958 76.7037 345.899 81.7683 342.302 82.2417L340.609 79.662Z" fill="#F4A28C"/>
<path d="M330.705 77.603L328.173 81.153C328.026 81.3519 327.932 81.5848 327.901 81.8298C327.869 82.0749 327.9 82.3239 327.991 82.5536C328.082 82.7832 328.231 82.9859 328.422 83.1425C328.613 83.2991 328.841 83.4045 329.084 83.4487L332.575 84.0995L330.705 77.603Z" fill="#F4A28C"/>
<path opacity="0.31" d="M340.775 88.821C342.52 87.7928 343.955 86.3129 344.929 84.5373C344.929 84.5373 348.171 90.2292 341.545 94.998L340.775 88.821Z" fill="#CE8172"/>
<path d="M278.934 136.213L269.55 166.353L250.439 163.3L258.971 109.778C258.971 109.778 273.1 125.09 278.934 136.213Z" fill="#F2C379"/>
<path opacity="0.08" d="M278.934 136.213L269.55 166.353L250.439 163.3L258.971 109.778C258.971 109.778 273.1 125.09 278.934 136.213Z" fill="black"/>
<path d="M398.249 205.344L388.144 303.3H377.695L369.66 226.502L351.224 212.491L398.249 205.344Z" fill="#24285B"/>
<path d="M351.224 212.491V303.371H363.483L374.736 223.319L351.224 212.491Z" fill="#24285B"/>
<path d="M253.444 103.909C247.21 99.0734 239.572 96.3985 231.683 96.2878C218.915 96.2878 197.52 105.861 193.059 137.906C188.598 169.95 193.189 205.356 193.189 205.356L240.215 212.456C240.215 212.456 292.033 137.622 253.444 103.909Z" fill="#F2C379"/>
<path opacity="0.08" d="M244.452 205.533L240.192 212.491L193.166 205.391C193.166 205.391 183.699 136.32 203.97 113.541L220.063 138.107L244.452 205.533Z" fill="black"/>
<path d="M336.574 106.595C342.758 101.655 350.387 98.8709 358.3 98.6663C371.08 98.5362 392.617 107.743 397.539 139.704C402.462 171.666 398.391 207.154 398.391 207.154L351.46 214.988C351.46 214.988 298.506 140.817 336.574 106.595Z" fill="#F2C379"/>
<path d="M201.899 122.167C196.775 149.822 192.574 220.988 290.081 205.072L289.336 195.333C289.336 195.333 243.978 192.008 236.583 172.992C230.311 156.886 241.801 112.192 219.85 108.867C211.33 107.683 203.473 113.718 201.899 122.167Z" fill="#F4A28C"/>
<path d="M199.616 122.44C197.482 132.416 197.62 142.745 200.018 152.662L234.335 152.366C234.335 152.366 239.967 117.15 225.057 108.109C225.057 108.109 221.507 105.033 214.407 106.831C210.74 107.811 207.416 109.789 204.805 112.544C202.193 115.299 200.397 118.725 199.616 122.44Z" fill="#F2C379"/>
<path opacity="0.2" d="M199.616 122.44C197.482 132.416 197.62 142.745 200.018 152.662L234.335 152.366C234.335 152.366 239.967 117.15 225.057 108.109C225.057 108.109 221.507 105.033 214.407 106.831C210.74 107.811 207.416 109.789 204.805 112.544C202.193 115.299 200.397 118.725 199.616 122.44Z" fill="white"/>
<path d="M236.346 303.383C236.346 303.383 237.375 308.199 241.481 309.11C245.587 310.021 246.12 314.222 242.25 314.778C238.381 315.335 229.399 309.24 229.399 309.24L230.476 303.324L236.346 303.383Z" fill="#F2C379"/>
<path d="M179.309 303.383C179.309 303.383 178.268 308.199 174.173 309.11C170.079 310.021 169.523 314.222 173.404 314.778C177.286 315.335 186.255 309.24 186.255 309.24L185.178 303.324L179.309 303.383Z" fill="#F2C379"/>
<path opacity="0.08" d="M353.567 127.634C353.567 127.634 348.253 146.639 365.648 161.135C383.043 175.63 379.955 201.214 346.585 207.509L351.46 214.976L401.634 206.409L404 171.299L386.014 135.101L353.567 127.634Z" fill="black"/>
<path d="M290.68 192.276L284.392 192.76L285.42 206.128L291.709 205.644L290.68 192.276Z" fill="#FFD200"/>
<path d="M326.172 65.8761C326.172 65.8761 323.877 72.278 332.574 72.3253C341.272 72.3726 337.627 80.4075 344.467 80.8335C351.306 81.2595 352.502 78.4668 352.206 73.3548C351.91 68.2428 352.62 58.4803 345.165 56.7053C337.71 54.9303 324.989 53.1553 326.172 65.8761Z" fill="#FFD200"/>
<path d="M352.029 122.191C351.342 110.571 363.566 102.489 374.24 107.115C389.375 113.671 414.236 126.049 418.591 152.177C425.466 193.428 405.574 208.74 382.961 226.502L377.908 216.148C377.908 216.148 405.468 186.363 389.741 158.993C377.636 138.048 352.987 138.154 352.029 122.191Z" fill="#F2C379"/>
<path opacity="0.2" d="M352.029 122.191C351.342 110.571 363.566 102.489 374.24 107.115C389.375 113.671 414.236 126.049 418.591 152.177C425.466 193.428 405.574 208.74 382.961 226.502L377.908 216.148C377.908 216.148 405.468 186.363 389.741 158.993C377.636 138.048 352.987 138.154 352.029 122.191Z" fill="white"/>
<path d="M378.499 217.355L372.429 220.301L377.695 229.377L382.96 226.502L378.499 217.355Z" fill="#F4A28C"/>
<path d="M240.192 212.491V303.371H227.932L216.679 223.319L240.192 212.491Z" fill="#24285B"/>
<path d="M309.085 192.658L310.269 204.918C310.269 204.918 300.802 209.166 295.228 205.935C289.655 202.705 296.767 188.86 309.085 192.658Z" fill="#D88B7C"/>
<path d="M354.123 303.383C354.123 303.383 353.093 308.199 348.987 309.11C344.881 310.021 344.348 314.222 348.218 314.778C352.087 315.335 361.069 309.24 361.069 309.24L360.004 303.324L354.123 303.383Z" fill="#F2C379"/>
<path d="M380.014 303.383C380.014 303.383 378.973 308.199 374.878 309.11C370.784 310.021 370.228 314.222 374.109 314.778C377.991 315.335 386.96 309.24 386.96 309.24L385.883 303.324L380.014 303.383Z" fill="#F2C379"/>
<path d="M193.154 205.344L176.091 303.3L189.107 303.371L217.129 226.502L240.192 212.491L193.154 205.344Z" fill="#24285B"/>
<path d="M290.909 195.144C290.909 195.144 294.649 190.86 298.731 192.777C302.814 194.694 299.678 194.812 303.228 196.8C306.778 198.788 311.949 207.924 291.714 205.628L290.909 195.144Z" fill="#F4A28C"/>
<path d="M180.788 102.69C190.323 102.69 198.053 94.9599 198.053 85.4248C198.053 75.8897 190.323 68.16 180.788 68.16C171.253 68.16 163.523 75.8897 163.523 85.4248C163.523 94.9599 171.253 102.69 180.788 102.69Z" fill="white"/>
<path d="M174.635 83.7445L179.333 91.022L188.373 79.8395" stroke="#A5A5A5" stroke-width="4" stroke-linecap="round" stroke-linejoin="round"/>
<path opacity="0.4" d="M199.733 48.919H165.239V57.368H199.733V48.919Z" fill="#A5A5A5"/>
<defs>
<filter id="filter0_d" x="0" y="83" width="580" height="302" filterUnits="userSpaceOnUse" color-interpolation-filters="sRGB">
<feFlood flood-opacity="0" result="BackgroundImageFix"/>
<feColorMatrix in="SourceAlpha" type="matrix" values="0 0 0 0 0 0 0 0 0 0 0 0 0 0 0 0 0 0 127 0"/>
<feOffset dy="2"/>
<feGaussianBlur stdDeviation="5"/>
<feColorMatrix type="matrix" values="0 0 0 0 0 0 0 0 0 0 0 0 0 0 0 0 0 0 0.18 0"/>
<feBlend mode="normal" in2="BackgroundImageFix" result="effect1_dropShadow"/>
<feBlend mode="normal" in="SourceGraphic" in2="effect1_dropShadow" result="shape"/>
</filter>
</defs>
</svg>
