<svg width="580" height="385" viewBox="0 0 580 385" fill="none" xmlns="http://www.w3.org/2000/svg">
<g filter="url(#filter0_d)">
<path d="M400.714 93.7289C247.214 79.1018 93.9604 125.453 49.9807 180.771C9.57398 231.594 -18.1631 316.299 58.1863 361.092C97.0669 383.903 216.715 354.618 249.895 368.765C283.075 382.913 496.904 360.373 547.847 319.609C598.791 278.845 530.084 239.76 560.248 215.541C590.412 191.322 554.215 108.356 400.714 93.7289Z" fill="#011F48" fill-opacity="0.8"/>
</g>
<path d="M254.137 74.0333C254.137 74.0333 183.051 102.995 174.758 164.331C166.464 225.668 137.959 235.721 137.959 235.721C137.959 235.721 224.387 256.289 267.596 224.803C310.804 193.316 355.955 215.153 367.672 175.51C379.39 135.868 383.323 113.391 350.943 99.7938C318.564 86.1963 254.137 74.0333 254.137 74.0333Z" fill="#F2C379"/>
<path opacity="0.04" d="M226.508 117.256C226.508 117.256 201.9 131.387 199.484 162.055C197.067 192.724 188.904 234.725 137.876 235.721C137.876 235.721 213.239 253.954 257.963 230.611C302.688 207.269 361.63 201.2 365.03 179.411C368.43 157.621 360.433 106.515 360.433 106.515L329.049 97.482L275.498 95.1111L226.508 117.256Z" fill="black"/>
<path d="M341.809 74.0333C341.809 74.0333 387.209 96.4863 397.244 134.588C407.279 172.689 346.892 201.129 346.892 201.129L338.729 190.376C338.729 190.376 393.346 137.338 341.809 118.572C298.542 102.805 341.809 74.0333 341.809 74.0333Z" fill="#F4A28C"/>
<path d="M345.222 75.681C345.222 75.681 376.025 89.5511 389.84 117.173L360.481 137.326C360.481 137.326 358.112 127.759 342.817 123.017C327.521 118.275 328.599 112.704 328.599 112.704L345.222 75.681Z" fill="#F2C379"/>
<path opacity="0.34" d="M345.222 75.681C345.222 75.681 376.025 89.5511 389.84 117.173L360.481 137.326C360.481 137.326 358.112 127.759 342.817 123.017C327.521 118.275 328.599 112.704 328.599 112.704L345.222 75.681Z" fill="white"/>
<path opacity="0.45" d="M300.675 333.084C368.607 333.084 423.677 327.209 423.677 319.961C423.677 312.713 368.607 306.838 300.675 306.838C232.743 306.838 177.673 312.713 177.673 319.961C177.673 327.209 232.743 333.084 300.675 333.084Z" fill="#E6E6E6"/>
<path d="M305.923 34.7583C305.923 34.7583 306.942 42.5113 305.923 47.7986C305.817 48.3058 305.612 48.7871 305.32 49.215C305.028 49.6428 304.655 50.0088 304.221 50.2919C303.787 50.5749 303.302 50.7695 302.793 50.8645C302.284 50.9595 301.761 50.9529 301.255 50.8453C298.637 50.2644 295.248 48.7114 294.146 44.6215L291.516 37.8998C291.129 36.4979 291.187 35.0103 291.681 33.6426C292.176 32.2749 293.083 31.0948 294.277 30.2653C298.53 26.8511 305.544 30.0045 305.923 34.7583Z" fill="#F4A28C"/>
<path d="M291.978 39.0616L289.075 64.5257L303.221 65.1184L299.655 46.3523L291.978 39.0616Z" fill="#F4A28C"/>
<path d="M306.314 39.678L308.624 42.5825C308.755 42.7484 308.842 42.9449 308.877 43.1537C308.913 43.3624 308.894 43.5766 308.825 43.7765C308.755 43.9763 308.636 44.1553 308.479 44.2968C308.321 44.4383 308.131 44.5378 307.925 44.5859L304.963 45.2735L306.314 39.678Z" fill="#F4A28C"/>
<path d="M258.011 187.792L338.729 190.376L335.85 204.649H261.139L258.011 187.792Z" fill="#FFD200"/>
<path opacity="0.31" d="M300.615 50.4303C298.821 50.0745 297.172 49.196 295.876 47.9053C295.876 47.9053 296.291 52.5761 301.634 56.9742L300.615 50.4303Z" fill="#CE8172"/>
<path d="M304.418 35.0784C303.841 35.2717 303.251 35.4262 302.653 35.5407C301.804 35.7276 300.978 36.0059 300.189 36.3705L299.549 36.6432C299.093 36.8454 298.707 37.1789 298.441 37.6012C298.176 38.0234 298.041 38.5153 298.056 39.0142C298.056 41.5037 297.274 46.127 291.244 46.6012C291.244 46.6012 285.107 37.4138 290.059 30.3483C291.489 28.394 293.338 26.7839 295.47 25.6354C297.601 24.4869 299.962 23.829 302.38 23.7096C308.908 23.5436 310.662 33.0275 304.418 35.0784Z" fill="#24285B"/>
<path d="M297.926 43.3056C298.146 43.0412 298.292 42.7227 298.349 42.383C298.405 42.0432 298.369 41.6946 298.246 41.3732C297.807 40.3182 296.954 38.9311 295.533 39.1327C294.111 39.3342 293.791 41.6815 294.798 43.2226C294.974 43.4773 295.208 43.687 295.48 43.8344C295.752 43.9818 296.055 44.0628 296.365 44.0709C296.674 44.079 296.981 44.0139 297.26 43.8809C297.54 43.7479 297.784 43.5508 297.973 43.3056H297.926Z" fill="#F4A28C"/>
<path d="M289.076 64.5257L303.222 65.1184C303.222 65.1184 372.246 62.3207 357.034 118.572C341.821 174.823 338.729 190.376 338.729 190.376L257.964 187.792C257.964 187.792 203.157 61.4079 289.076 64.5257Z" fill="#F2C379"/>
<path opacity="0.34" d="M299.572 137.338C309.93 137.338 318.327 128.936 318.327 118.572C318.327 108.207 309.93 99.8056 299.572 99.8056C289.214 99.8056 280.817 108.207 280.817 118.572C280.817 128.936 289.214 137.338 299.572 137.338Z" fill="white"/>
<path d="M254.137 74.0333C254.137 74.0333 208.737 96.4863 198.726 134.588C188.715 172.689 249.078 201.129 249.078 201.129L257.241 190.376C257.241 190.376 202.624 137.338 254.161 118.572C297.405 102.805 254.137 74.0333 254.137 74.0333Z" fill="#F4A28C"/>
<path opacity="0.08" d="M271.589 111.826C271.589 111.826 261.092 159.34 289.135 204.638H261.139L257.964 187.792C257.964 187.792 242.965 149.714 241.721 128.98C240.477 108.246 271.589 111.826 271.589 111.826Z" fill="black"/>
<path d="M254.137 74.0333C254.137 74.0333 230.442 85.8881 217.409 99.7938L239.339 128.98C239.339 128.98 276.695 121.014 275.391 99.7938C274.088 78.5737 254.137 74.0333 254.137 74.0333Z" fill="#F2C379"/>
<path opacity="0.34" d="M254.137 74.0333C254.137 74.0333 230.442 85.8881 217.409 99.7938L239.339 128.98C239.339 128.98 276.695 121.014 275.391 99.7938C274.088 78.5737 254.137 74.0333 254.137 74.0333Z" fill="white"/>
<path d="M261.139 204.638L249.291 314.887H257.963C257.963 314.887 278.104 228.241 298.056 223.404C318.007 218.567 336.549 314.887 336.549 314.887H346.821L335.814 204.638H261.139Z" fill="#24285B"/>
<path d="M254.137 74.0332C254.137 74.0332 294.134 44.5622 345.221 75.681C345.221 75.681 280.924 110.178 254.137 74.0332Z" fill="#FFD200"/>
<path d="M231.117 190.566L244.659 175.51L263.71 195.355C265.041 196.739 266.057 198.394 266.691 200.206C267.325 202.019 267.561 203.947 267.383 205.859C266.897 210.85 265.238 216.907 260.025 217.121C251.104 217.5 254.102 205.965 254.102 205.965L231.117 190.566Z" fill="#F2C379"/>
<path d="M365.078 190.566L351.56 175.51L334.109 193.696C331.932 195.917 330.383 198.676 329.621 201.692C328.859 204.708 328.912 207.872 329.772 210.861C330.791 214.193 332.687 216.978 336.194 217.121C345.115 217.5 342.117 205.965 342.117 205.965L365.078 190.566Z" fill="#F2C379"/>
<path d="M251.613 289.909L267.903 292.245L258.046 318.076L234.849 323.328L248.189 312.433L251.613 289.909Z" fill="#F2C379"/>
<path d="M345.684 289.589L327.095 292.245L336.94 318.076L360.138 323.328L346.797 312.433L345.684 289.589Z" fill="#F2C379"/>
<g clip-path="url(#clip0)">
<path d="M299.879 137.251C310.368 137.251 318.87 128.749 318.87 118.26C318.87 107.772 310.368 99.2696 299.879 99.2696C289.391 99.2696 280.889 107.772 280.889 118.26C280.889 128.749 289.391 137.251 299.879 137.251Z" fill="url(#paint0_radial)"/>
<path fill-rule="evenodd" clip-rule="evenodd" d="M292.313 111.624C292.313 111.683 292.399 111.946 292.419 111.992C292.865 111.952 293.286 111.788 294.087 111.788C295.178 111.788 296.123 111.9 296.991 112.287C297.175 112.366 297.326 112.439 297.51 112.53C297.602 112.583 297.647 112.616 297.739 112.668C298.094 112.885 298.094 112.905 298.423 113.155C299.06 113.647 299.697 114.613 300.019 115.395C300.4 116.327 300.623 117.615 300.479 118.64C300.374 119.356 300.321 119.737 300.039 120.44C299.618 121.484 298.948 122.305 298.061 122.962C296.393 124.191 294.015 124.348 292.097 123.612C291.019 123.199 290.855 122.91 290.323 122.627C290.205 122.699 290.126 122.811 290.054 122.923C290.146 123.061 290.737 123.429 290.914 123.527C292.011 124.118 293.121 124.447 294.258 124.493H294.757C295.598 124.46 296.445 124.269 297.293 123.901C297.739 123.711 298.186 123.415 298.554 123.126C299.447 122.43 300.019 121.589 300.466 120.532C300.643 120.111 300.912 119.047 300.925 118.554C300.945 117.832 300.978 117.832 300.886 117.024C300.735 115.625 300.045 114.146 299.06 113.155C298.994 113.089 298.922 113.036 298.85 112.964C298.764 112.872 298.738 112.852 298.639 112.774C298.107 112.366 297.72 112.123 297.083 111.86C296.275 111.525 295.329 111.355 294.218 111.355C294.146 111.355 292.313 111.453 292.313 111.624Z" fill="#CEB16C"/>
<path fill-rule="evenodd" clip-rule="evenodd" d="M301.523 118.659C301.523 119.454 301.392 119.888 301.891 119.888C301.977 119.888 302.049 119.809 302.082 119.75C302.213 119.507 302.161 117.694 302.161 117.359C302.22 117.457 302.469 118.607 302.502 118.745C302.568 118.981 302.614 119.198 302.673 119.441C302.739 119.704 302.778 119.901 303.093 119.901C303.514 119.914 303.54 119.362 303.711 118.778L304.026 117.562C304.026 117.562 304.046 117.49 304.046 117.483L304.092 117.392C304.092 118.153 304.059 118.797 304.059 119.559C304.059 119.796 304.164 119.921 304.388 119.921C304.723 119.921 304.69 119.553 304.69 119.224C304.69 118.876 304.69 118.534 304.69 118.193C304.69 116.649 304.972 116.59 303.954 116.59C303.711 116.59 303.678 116.774 303.606 116.978C303.54 117.181 303.501 117.365 303.442 117.575L303.087 118.758C303.074 118.567 302.85 117.773 302.778 117.497C302.732 117.293 302.68 117.076 302.634 116.879C302.542 116.518 302.345 116.557 301.957 116.557C301.445 116.557 301.556 116.938 301.563 117.424C301.563 117.661 301.517 117.773 301.523 118.022C301.523 118.232 301.523 118.443 301.523 118.659Z" fill="#CEB16C"/>
<path fill-rule="evenodd" clip-rule="evenodd" d="M290.645 112.925C290.448 112.925 290.402 112.826 290.185 112.82C290.212 112.695 290.205 112.649 290.021 112.524C289.837 112.563 289.929 112.642 289.752 112.688C289.745 112.557 289.765 112.59 289.693 112.511C289.535 112.314 289.43 112.498 289.351 112.557C289.187 112.517 289.003 112.425 288.819 112.425C288.733 112.425 288.55 112.603 288.55 112.688C288.55 112.892 289.607 113.194 289.922 113.654L289.259 114.435C289.128 114.587 289.036 114.508 288.687 114.488C288.668 114.488 288.182 114.363 288.182 114.652C288.182 114.757 288.313 114.79 288.405 114.83C288.517 114.889 288.576 114.922 288.701 114.974C289.068 115.132 288.543 115.322 289.121 115.322C289.22 115.513 289.312 115.874 289.489 115.992C289.837 115.894 289.627 115.519 289.62 114.954C289.995 114.705 290.159 114.508 290.481 114.219C290.783 114.422 291.006 114.908 291.197 115.243C291.289 115.408 291.322 115.585 291.479 115.585C291.584 115.585 291.755 115.401 291.742 115.27C291.736 115.224 291.604 114.823 291.584 114.79C291.65 114.744 291.768 114.679 291.742 114.567C291.716 114.468 291.591 114.403 291.479 114.389C291.519 114.245 291.742 114.186 291.525 114.008C291.368 113.877 291.361 114.054 291.276 113.733C291.263 113.66 291.236 113.601 291.217 113.522C291.289 113.411 291.387 113.319 291.492 113.233C291.571 113.168 291.571 113.187 291.637 113.109C291.979 112.734 292.261 112.471 292.149 111.992C291.44 111.814 290.744 112.925 290.645 112.925Z" fill="#CEB16C"/>
<path fill-rule="evenodd" clip-rule="evenodd" d="M292.787 119.789C292.885 119.789 293.017 119.717 293.069 119.645C293.207 119.434 293.148 118.627 293.148 118.291H294.554V119.421C294.554 119.71 294.692 119.789 294.922 119.789C295.211 119.789 295.217 119.546 295.217 119.257L295.25 116.721C295.25 116.327 294.586 116.308 294.586 116.754V117.759L293.148 117.726C293.148 117.096 293.338 116.393 292.819 116.393C292.498 116.393 292.484 116.721 292.484 117.057C292.491 117.398 292.484 117.746 292.484 118.088C292.484 118.679 292.268 119.789 292.787 119.789Z" fill="#CEB16C"/>
<path fill-rule="evenodd" clip-rule="evenodd" d="M305.36 117.726V119.592C305.36 119.914 305.702 119.894 306.024 119.888C306.346 119.888 306.674 119.894 306.996 119.888C307.272 119.888 307.699 119.973 307.824 119.815C307.942 119.664 307.935 119.362 307.43 119.362H306.024V118.423C306.26 118.423 306.352 118.456 306.595 118.456C307.062 118.456 307.817 118.567 307.712 118.14C307.666 117.956 307.508 117.924 307.292 117.924C306.878 117.91 306.444 117.924 306.024 117.924C306.083 117.667 306.057 117.431 306.057 117.122L307.528 117.155C307.725 117.155 307.863 117.089 307.863 116.892C307.863 116.564 307.482 116.623 307.16 116.623C306.825 116.623 306.49 116.623 306.162 116.623C305.452 116.629 305.36 116.426 305.36 117.726Z" fill="#CEB16C"/>
<path fill-rule="evenodd" clip-rule="evenodd" d="M289.384 117.26C289.384 118.495 291.249 118.016 291.249 118.791C291.249 119.251 290.369 119.474 290.034 118.981C289.975 118.896 289.837 118.456 289.653 118.456C288.97 118.456 289.305 119.756 290.612 119.756C291.348 119.756 291.913 119.402 291.913 118.659C291.913 117.51 290.021 117.838 290.021 117.221C290.021 116.859 290.455 116.859 290.678 116.859C291.23 116.859 291.118 117.49 291.479 117.49C292.011 117.49 291.972 116.36 290.514 116.36C289.949 116.36 289.384 116.695 289.384 117.26Z" fill="#CEB16C"/>
<path fill-rule="evenodd" clip-rule="evenodd" d="M298.489 118.022C298.325 118.022 298.259 117.989 298.055 117.989V117.024C298.456 117.024 299.192 116.951 299.192 117.424C299.192 117.799 299.12 118.022 298.489 118.022ZM297.353 119.257V119.454C297.353 119.875 297.812 119.96 297.977 119.684C298.042 119.566 298.055 118.745 298.055 118.521C298.877 118.521 299.895 118.64 299.895 117.457C299.895 116.538 299.047 116.518 298.489 116.518C298.233 116.524 297.944 116.465 297.734 116.505C297.267 116.584 297.392 116.965 297.392 117.727C297.392 117.976 297.353 118.167 297.353 118.456C297.353 118.725 297.353 118.988 297.353 119.257Z" fill="#CEB16C"/>
<path fill-rule="evenodd" clip-rule="evenodd" d="M295.952 118.62C295.952 119.198 295.834 119.829 296.287 119.829C296.721 119.829 296.622 119.283 296.622 118.955C296.622 118.725 296.655 118.633 296.655 118.39V116.754C296.655 116.347 296.044 116.308 295.985 116.722C295.965 116.879 295.985 117.188 295.985 117.359C295.985 117.595 295.952 117.707 295.952 117.957C295.952 118.18 295.952 118.403 295.952 118.62Z" fill="#CEB16C"/>
<path fill-rule="evenodd" clip-rule="evenodd" d="M284.549 120.623H292.182V120.361H284.549V120.623Z" fill="#CEB16C"/>
<path fill-rule="evenodd" clip-rule="evenodd" d="M284.581 121.924H292.214V121.661H284.581V121.924Z" fill="#CEB16C"/>
<path fill-rule="evenodd" clip-rule="evenodd" d="M285.515 121.261H293.148V121.024H285.515V121.261Z" fill="#CEB16C"/>
<path d="M304.095 120.181C304.216 120.181 304.314 120.221 304.391 120.3C304.47 120.38 304.51 120.483 304.51 120.61V123.159C304.51 123.289 304.472 123.394 304.395 123.474C304.319 123.553 304.221 123.593 304.1 123.593C303.957 123.593 303.849 123.545 303.776 123.45L302.327 121.644V123.159C302.327 123.289 302.291 123.394 302.218 123.474C302.145 123.553 302.046 123.593 301.922 123.593C301.802 123.593 301.703 123.553 301.627 123.474C301.551 123.394 301.513 123.289 301.513 123.159V120.61C301.513 120.483 301.551 120.38 301.627 120.3C301.703 120.221 301.802 120.181 301.922 120.181C302.059 120.181 302.165 120.229 302.242 120.324L303.69 122.125V120.61C303.69 120.48 303.727 120.377 303.8 120.3C303.876 120.221 303.975 120.181 304.095 120.181ZM306.715 123.607C306.372 123.607 306.073 123.537 305.819 123.397C305.568 123.255 305.375 123.054 305.238 122.797C305.101 122.537 305.033 122.232 305.033 121.882C305.033 121.533 305.101 121.229 305.238 120.972C305.375 120.712 305.568 120.512 305.819 120.372C306.073 120.232 306.372 120.162 306.715 120.162C307.058 120.162 307.355 120.232 307.606 120.372C307.86 120.512 308.054 120.712 308.188 120.972C308.324 121.229 308.392 121.533 308.392 121.882C308.392 122.232 308.324 122.537 308.188 122.797C308.051 123.054 307.856 123.255 307.601 123.397C307.351 123.537 307.055 123.607 306.715 123.607ZM306.715 122.935C306.969 122.935 307.168 122.846 307.311 122.668C307.454 122.487 307.525 122.225 307.525 121.882C307.525 121.539 307.452 121.279 307.306 121.101C307.163 120.923 306.966 120.834 306.715 120.834C306.461 120.834 306.263 120.923 306.12 121.101C305.977 121.275 305.905 121.536 305.905 121.882C305.905 122.228 305.977 122.491 306.12 122.668C306.263 122.846 306.461 122.935 306.715 122.935ZM312.921 120.448C312.953 120.359 313.004 120.291 313.074 120.243C313.147 120.195 313.226 120.172 313.312 120.172C313.417 120.172 313.507 120.205 313.583 120.272C313.663 120.338 313.703 120.429 313.703 120.543C313.703 120.594 313.69 120.658 313.664 120.734L312.707 123.326C312.675 123.415 312.616 123.485 312.53 123.536C312.448 123.583 312.356 123.607 312.254 123.607C312.152 123.607 312.06 123.583 311.978 123.536C311.895 123.485 311.838 123.415 311.806 123.326L311.187 121.558L310.539 123.326C310.504 123.415 310.445 123.485 310.362 123.536C310.28 123.583 310.189 123.607 310.091 123.607C309.989 123.607 309.897 123.583 309.814 123.536C309.732 123.485 309.675 123.415 309.643 123.326L308.68 120.734C308.658 120.67 308.647 120.61 308.647 120.553C308.647 120.435 308.688 120.343 308.771 120.276C308.857 120.207 308.955 120.172 309.066 120.172C309.155 120.172 309.236 120.195 309.309 120.243C309.386 120.288 309.44 120.356 309.471 120.448L310.124 122.325L310.815 120.448C310.847 120.359 310.898 120.291 310.968 120.243C311.041 120.195 311.12 120.172 311.206 120.172C311.292 120.172 311.369 120.195 311.439 120.243C311.509 120.291 311.56 120.361 311.592 120.453L312.24 122.368L312.921 120.448ZM314.55 122.454C314.483 122.454 314.426 122.432 314.378 122.387C314.334 122.343 314.305 122.279 314.293 122.197L314.045 120.715C314.042 120.696 314.04 120.67 314.04 120.639C314.04 120.496 314.088 120.384 314.183 120.305C314.281 120.222 314.404 120.181 314.55 120.181C314.699 120.181 314.821 120.222 314.917 120.305C315.012 120.388 315.06 120.5 315.06 120.643C315.06 120.675 315.058 120.701 315.055 120.72L314.802 122.197C314.793 122.279 314.764 122.343 314.717 122.387C314.672 122.432 314.617 122.454 314.55 122.454ZM314.55 123.593C314.416 123.593 314.305 123.548 314.216 123.459C314.131 123.37 314.088 123.261 314.088 123.131C314.088 123 314.131 122.891 314.216 122.802C314.305 122.713 314.416 122.668 314.55 122.668C314.68 122.668 314.788 122.713 314.874 122.802C314.963 122.891 315.007 123 315.007 123.131C315.007 123.261 314.963 123.37 314.874 123.459C314.788 123.548 314.68 123.593 314.55 123.593Z" fill="#CEB16C"/>
</g>
<defs>
<filter id="filter0_d" x="0" y="83" width="580" height="302" filterUnits="userSpaceOnUse" color-interpolation-filters="sRGB">
<feFlood flood-opacity="0" result="BackgroundImageFix"/>
<feColorMatrix in="SourceAlpha" type="matrix" values="0 0 0 0 0 0 0 0 0 0 0 0 0 0 0 0 0 0 127 0"/>
<feOffset dy="2"/>
<feGaussianBlur stdDeviation="5"/>
<feColorMatrix type="matrix" values="0 0 0 0 0 0 0 0 0 0 0 0 0 0 0 0 0 0 0.18 0"/>
<feBlend mode="normal" in2="BackgroundImageFix" result="effect1_dropShadow"/>
<feBlend mode="normal" in="SourceGraphic" in2="effect1_dropShadow" result="shape"/>
</filter>
<radialGradient id="paint0_radial" cx="0" cy="0" r="1" gradientUnits="userSpaceOnUse" gradientTransform="translate(299.879 118.26) rotate(90) scale(11.7397)">
<stop stop-color="#022B60"/>
<stop offset="1" stop-color="#011F48"/>
<stop offset="1" stop-color="#011F48"/>
</radialGradient>
<clipPath id="clip0">
<rect width="37.9814" height="37.9814" fill="white" transform="translate(280.889 99.2696)"/>
</clipPath>
</defs>
</svg>
